<?xml version="1.0" encoding="UTF-8"?><svg id="Camada_1" xmlns="http://www.w3.org/2000/svg" viewBox="0 0 1461.7 686.48"><defs><style>.cls-1{fill:#79ab74;}.cls-2{fill:#4a83c2;}</style></defs><path class="cls-2" d="M532.56,163.05c-19.26,21.67-49.24,30.26-77.11,22.28-4.03-1.15-8.14-2.1-12.34-2.86-17.74-3.18-34.98-2.5-51.72,2.01-16.74,4.52-32.09,12.02-46.06,22.52-13.96,10.51-25.73,23.51-35.27,39.01-9.55,15.51-16.01,32.66-19.38,51.47-3.4,18.99-3.3,37.37.3,55.13,3.59,17.77,10.16,34.05,19.69,48.85,9.53,14.8,21.37,27.17,35.52,37.12,14.15,9.95,30.01,16.49,47.58,19.64,19.52,3.49,38.54,2.37,57.06-3.38,3.77-1.17,7.44-2.48,11.01-3.93,27.54-11.16,58.97-6.39,82.13,12.22h0c-20.84,20.26-45.19,35.09-73.06,44.47-27.87,9.39-56.88,11.39-87.05,5.99-25.2-4.51-47.99-13.77-68.37-27.76-20.39-13.99-37.39-31.32-50.99-51.98-13.61-20.66-23.07-43.55-28.37-68.67-5.3-25.12-5.57-50.99-.81-77.61,4.76-26.62,13.99-50.79,27.67-72.51,13.68-21.72,30.49-39.91,50.42-54.57,19.92-14.65,41.88-25.01,65.85-31.07,23.97-6.05,48.56-6.83,73.76-2.32,30.17,5.4,56.68,17.38,79.55,35.93h0Z"/><path class="cls-2" d="M422.27,393.64c-12.48,0-23.85-3.21-34.12-9.63-10.26-6.42-18.45-15.03-24.55-25.84-6.1-10.81-9.16-22.77-9.16-35.88,0-9.95,1.76-19.24,5.29-27.88,3.53-8.64,8.39-16.23,14.58-22.79,6.19-6.56,13.41-11.69,21.64-15.4,8.23-3.71,17-5.56,26.32-5.56,12.48,0,23.85,3.21,34.12,9.63,10.26,6.42,18.45,15.06,24.55,25.91,6.1,10.85,9.16,22.88,9.16,36.08,0,9.86-1.76,19.08-5.29,27.67-3.53,8.59-8.39,16.17-14.58,22.72-6.19,6.56-13.39,11.69-21.57,15.4-8.19,3.71-16.98,5.56-26.39,5.56ZM422.27,374.65c9.22,0,17.52-2.42,24.89-7.26,7.37-4.84,13.2-11.24,17.5-19.19,4.29-7.96,6.44-16.6,6.44-25.91s-2.17-18.25-6.51-26.25c-4.34-8-10.2-14.4-17.57-19.2-7.37-4.79-15.62-7.19-24.76-7.19s-17.52,2.42-24.89,7.26c-7.37,4.84-13.21,11.24-17.5,19.2-4.3,7.96-6.44,16.69-6.44,26.18s2.21,18.61,6.65,26.52c4.43,7.92,10.35,14.2,17.77,18.86,7.41,4.66,15.55,6.99,24.42,6.99Z"/><path class="cls-2" d="M626.93,306.14v83.97h-18.99v-80.17c0-7.41-1.81-14.15-5.43-20.21-3.62-6.06-8.46-10.9-14.52-14.52-6.06-3.62-12.8-5.43-20.21-5.43s-14.04,1.81-20.14,5.43c-6.1,3.62-10.97,8.46-14.58,14.52-3.62,6.06-5.43,12.8-5.43,20.21v80.17h-18.99v-135.66h18.99v18.72c4.79-6.87,11.03-12.34,18.72-16.41,7.69-4.07,16.05-6.1,25.1-6.1,10.22,0,19.53,2.49,27.95,7.46,8.41,4.97,15.1,11.67,20.08,20.08,4.97,8.41,7.46,17.73,7.46,27.95Z"/><path class="cls-1" d="M737.2,390.66h-52.63l-49.38-135.66h43.41l32.29,88.99,32.29-88.99h43.41l-49.38,135.66Z"/><path class="cls-1" d="M949.51,390.66h-52.63l-49.38-135.66h43.41l32.29,88.99,48.42-103.51c11.66-24.91,35.24-42.14,62.52-45.66h0s-84.63,195.83-84.63,195.83Z"/><path class="cls-1" d="M1104.99,252.96h40.7v135.66h-40.83l-1.9-12.21c-3.35,4.7-7.57,8.5-12.68,11.4-5.11,2.89-11.06,4.34-17.84,4.34-10.13,0-19.6-1.9-28.42-5.7-8.82-3.8-16.57-9.07-23.26-15.8-6.69-6.74-11.92-14.52-15.67-23.33-3.75-8.82-5.63-18.29-5.63-28.42s1.76-18.72,5.29-27.13c3.53-8.41,8.48-15.8,14.85-22.18,6.38-6.38,13.75-11.37,22.11-14.99,8.36-3.62,17.34-5.43,26.93-5.43,7.78,0,14.85,1.61,21.23,4.82,6.37,3.21,12.05,7.21,17.02,12.01l-1.9-13.02ZM1071.35,353.07c5.61,0,10.72-1.45,15.33-4.34,4.61-2.89,8.28-6.78,10.99-11.67,2.71-4.88,4.07-10.31,4.07-16.28s-1.36-11.39-4.07-16.28-6.38-8.77-10.99-11.67c-4.61-2.89-9.72-4.34-15.33-4.34s-10.7,1.45-15.26,4.34c-4.57,2.9-8.19,6.78-10.85,11.67-2.67,4.88-4,10.31-4,16.28s1.36,11.4,4.07,16.28c2.71,4.88,6.35,8.77,10.92,11.67,4.57,2.89,9.61,4.34,15.13,4.34Z"/><path class="cls-2" d="M824.98,492.7c-4.12,0-8.09-.65-11.92-1.94-3.83-1.29-7.17-3.14-10.04-5.55-2.86-2.41-4.89-5.27-6.1-8.58l8.58-3.23c.73,2.04,2.09,3.82,4.07,5.33,1.99,1.51,4.33,2.69,7.03,3.53,2.7.84,5.49,1.26,8.37,1.26,3.28,0,6.33-.54,9.16-1.61,2.83-1.08,5.11-2.58,6.86-4.51,1.75-1.93,2.62-4.19,2.62-6.78s-.91-4.84-2.73-6.53c-1.82-1.7-4.16-3.04-7-4.05-2.84-1-5.81-1.78-8.91-2.32-5.29-.87-10.02-2.12-14.19-3.75-4.17-1.62-7.47-3.89-9.9-6.81-2.43-2.92-3.64-6.76-3.64-11.54,0-4.45,1.29-8.33,3.86-11.65,2.57-3.32,5.97-5.89,10.2-7.71,4.23-1.82,8.78-2.73,13.67-2.73,4.05,0,7.97.63,11.78,1.89,3.81,1.26,7.17,3.09,10.09,5.5,2.92,2.41,5.01,5.34,6.29,8.8l-8.69,3.17c-.73-2.08-2.09-3.87-4.07-5.39-1.99-1.51-4.32-2.68-7-3.5s-5.48-1.23-8.39-1.23c-3.25-.04-6.27.49-9.08,1.59-2.81,1.09-5.09,2.61-6.84,4.54-1.75,1.93-2.63,4.18-2.63,6.73,0,3.06.81,5.4,2.43,7.03,1.62,1.62,3.84,2.84,6.64,3.64,2.81.8,5.96,1.51,9.46,2.13,4.96.84,9.55,2.16,13.78,3.96,4.23,1.8,7.63,4.2,10.2,7.19,2.57,2.99,3.86,6.67,3.86,11.05s-1.29,8.33-3.86,11.65c-2.57,3.32-5.97,5.89-10.2,7.71-4.23,1.82-8.82,2.73-13.78,2.73Z"/><path class="cls-2" d="M919.09,436.59h9.19v54.68h-9.19l-.38-9.24c-1.71,3.17-4.07,5.74-7.08,7.71-3.01,1.97-6.59,2.95-10.75,2.95s-7.76-.76-11.26-2.27-6.59-3.61-9.27-6.29c-2.68-2.68-4.77-5.77-6.26-9.27-1.5-3.5-2.24-7.27-2.24-11.32s.73-7.58,2.19-11.05c1.46-3.46,3.49-6.5,6.1-9.1s5.62-4.65,9.05-6.12,7.11-2.21,11.05-2.21c4.3,0,8.07,1.01,11.32,3.04,3.24,2.02,5.87,4.64,7.87,7.85l-.33-9.35ZM900.72,483.78c3.61,0,6.73-.88,9.38-2.65,2.64-1.77,4.68-4.16,6.12-7.19,1.44-3.03,2.16-6.36,2.16-10.01s-.73-7.08-2.19-10.09-3.51-5.39-6.15-7.16c-2.64-1.77-5.75-2.65-9.32-2.65s-6.89.89-9.84,2.68c-2.95,1.79-5.3,4.18-7.03,7.19-1.73,3.01-2.6,6.35-2.6,10.03s.89,7.03,2.68,10.03c1.78,3.01,4.16,5.39,7.11,7.16,2.95,1.77,6.18,2.65,9.68,2.65Z"/><path class="cls-2" d="M947.96,470.5v-33.9h9.19v31.88c0,2.77.67,5.29,2.02,7.55,1.35,2.26,3.16,4.06,5.44,5.39,2.28,1.33,4.78,2,7.52,2s5.28-.67,7.52-2,4.04-3.13,5.39-5.39c1.35-2.26,2.02-4.77,2.02-7.55v-31.88h9.19l.06,54.68h-9.19l-.06-6.94c-1.93,2.55-4.37,4.59-7.33,6.1-2.95,1.51-6.14,2.27-9.57,2.27-4.08,0-7.81-.99-11.18-2.98-3.37-1.99-6.05-4.66-8.04-8.01-1.99-3.35-2.98-7.09-2.98-11.21ZM970.82,430.52l4.37-15.75h9.19l-7.44,15.75h-6.12Z"/><path class="cls-2" d="M1061.7,409.25h9.19v82.02h-9.19v-9.3c-1.86,3.21-4.36,5.8-7.49,7.77-3.14,1.97-6.82,2.95-11.05,2.95-3.97,0-7.69-.75-11.16-2.24-3.46-1.49-6.52-3.56-9.16-6.21-2.64-2.64-4.71-5.7-6.21-9.16-1.5-3.46-2.24-7.18-2.24-11.16s.75-7.7,2.24-11.18c1.5-3.48,3.56-6.54,6.21-9.19,2.64-2.64,5.7-4.71,9.16-6.21,3.46-1.49,7.18-2.24,11.16-2.24,4.23,0,7.91.98,11.05,2.95,3.13,1.97,5.63,4.56,7.49,7.77v-36.58ZM1043.27,483.78c3.61,0,6.73-.88,9.38-2.65,2.64-1.77,4.68-4.16,6.12-7.19,1.44-3.03,2.16-6.36,2.16-10.01s-.73-7.08-2.19-10.09c-1.46-3.01-3.51-5.39-6.15-7.16-2.64-1.77-5.75-2.65-9.32-2.65s-6.88.89-9.81,2.68c-2.93,1.79-5.28,4.18-7.03,7.19s-2.62,6.35-2.62,10.03.89,7.03,2.68,10.03c1.78,3.01,4.16,5.39,7.11,7.16,2.95,1.77,6.18,2.65,9.68,2.65Z"/><path class="cls-2" d="M1118.52,492.7c-5.03,0-9.62-1.29-13.75-3.88-4.14-2.59-7.44-6.06-9.9-10.42-2.46-4.36-3.69-9.18-3.69-14.46,0-4.01.71-7.76,2.13-11.24,1.42-3.48,3.38-6.54,5.88-9.19,2.5-2.64,5.4-4.71,8.72-6.21,3.32-1.49,6.85-2.24,10.61-2.24,4.12,0,7.9.83,11.35,2.49,3.45,1.66,6.4,3.97,8.86,6.92,2.46,2.95,4.3,6.38,5.52,10.28,1.22,3.9,1.67,8.08,1.34,12.52h-44.62c.44,3.1,1.46,5.86,3.06,8.28,1.6,2.43,3.65,4.35,6.15,5.77,2.5,1.42,5.28,2.15,8.34,2.19,3.28,0,6.25-.85,8.91-2.54,2.66-1.69,4.81-4.02,6.45-6.97l9.35,2.19c-2.19,4.85-5.49,8.81-9.9,11.89-4.41,3.08-9.35,4.62-14.82,4.62ZM1100.69,460.05h35.65c-.29-3.06-1.28-5.86-2.95-8.39-1.68-2.53-3.81-4.57-6.4-6.1-2.59-1.53-5.41-2.3-8.48-2.3s-5.87.75-8.42,2.24c-2.55,1.5-4.66,3.51-6.32,6.04-1.66,2.53-2.69,5.37-3.09,8.5Z"/><path class="cls-1" d="M796.69,254.72h40.7v135.66h-40.7v-135.66Z"/><circle class="cls-1" cx="817.04" cy="223.85" r="16.82"/></svg>
