<?xml version="1.0" encoding="UTF-8"?><svg id="Camada_1" xmlns="http://www.w3.org/2000/svg" viewBox="0 0 1461.7 686.48"><defs><style>.cls-1{fill:#79ab74;}.cls-2{fill:#374d72;}</style></defs><path class="cls-2" d="M666.96,286.39l15,8.1c-4.54,6.33-10.29,11.4-17.25,15.2-6.97,3.8-14.52,5.7-22.65,5.7-9.2,0-17.58-2.37-25.15-7.1s-13.6-11.08-18.1-19.05c-4.5-7.97-6.75-16.78-6.75-26.45,0-7.33,1.3-14.18,3.9-20.55,2.6-6.37,6.18-11.97,10.75-16.8,4.57-4.83,9.88-8.62,15.95-11.35,6.07-2.73,12.53-4.1,19.4-4.1,8.13,0,15.68,1.9,22.65,5.7,6.96,3.8,12.71,8.9,17.25,15.3l-15,8.1c-3.2-3.93-7-6.96-11.4-9.1-4.4-2.13-8.9-3.2-13.5-3.2-6.2,0-11.82,1.65-16.85,4.95-5.04,3.3-9.02,7.68-11.95,13.15-2.93,5.47-4.4,11.43-4.4,17.9s1.48,12.42,4.45,17.85c2.97,5.43,6.97,9.78,12,13.05,5.03,3.27,10.62,4.9,16.75,4.9,4.93,0,9.57-1.13,13.9-3.4,4.33-2.27,8-5.2,11-8.8Z"/><path class="cls-2" d="M742.16,315.39c-9.2,0-17.58-2.37-25.15-7.1s-13.6-11.08-18.1-19.05c-4.5-7.97-6.75-16.78-6.75-26.45,0-7.33,1.3-14.18,3.9-20.55,2.6-6.37,6.18-11.97,10.75-16.8,4.57-4.83,9.88-8.62,15.95-11.35,6.07-2.73,12.53-4.1,19.4-4.1,9.2,0,17.58,2.37,25.15,7.1,7.57,4.73,13.6,11.1,18.1,19.1s6.75,16.87,6.75,26.6c0,7.27-1.3,14.07-3.9,20.4-2.6,6.33-6.18,11.92-10.75,16.75-4.57,4.83-9.87,8.62-15.9,11.35-6.03,2.73-12.52,4.1-19.45,4.1ZM742.16,298.59c6.27,0,11.92-1.65,16.95-4.95,5.03-3.3,9-7.67,11.9-13.1,2.9-5.43,4.35-11.35,4.35-17.75s-1.48-12.53-4.45-18c-2.97-5.47-6.95-9.83-11.95-13.1-5-3.27-10.6-4.9-16.8-4.9s-11.9,1.65-16.9,4.95c-5,3.3-8.97,7.68-11.9,13.15-2.93,5.47-4.4,11.43-4.4,17.9s1.5,12.72,4.5,18.15c3,5.44,7.03,9.73,12.1,12.9,5.07,3.17,10.6,4.75,16.6,4.75Z"/><path class="cls-2" d="M897.26,250.59v62.2h-16.8v-58.5c0-5.07-1.23-9.67-3.7-13.8-2.47-4.13-5.77-7.42-9.9-9.85-4.13-2.43-8.73-3.65-13.8-3.65s-9.58,1.22-13.75,3.65c-4.17,2.43-7.48,5.72-9.95,9.85-2.47,4.13-3.7,8.73-3.7,13.8v58.5h-16.8v-100h16.8v12.5c3.53-4.67,8-8.38,13.4-11.15,5.4-2.77,11.27-4.15,17.6-4.15,7.47,0,14.28,1.82,20.45,5.45,6.17,3.63,11.07,8.52,14.7,14.65,3.63,6.13,5.45,12.97,5.45,20.5Z"/><path class="cls-1" d="M986.46,312.79h-38.8l-36.4-100h32l23.8,65.6,23.8-65.6h32l-36.4,100Z"/><path class="cls-1" d="M1052.06,202.39c-4.33,0-7.97-1.43-10.9-4.3-2.93-2.87-4.4-6.43-4.4-10.7s1.46-7.75,4.4-10.65c2.93-2.9,6.53-4.35,10.8-4.35s7.75,1.45,10.65,4.35,4.35,6.45,4.35,10.65-1.42,7.83-4.25,10.7c-2.83,2.87-6.38,4.3-10.65,4.3ZM1036.86,212.79h30v100h-30v-100Z"/><path class="cls-1" d="M1156.07,312.79h-38.8l-36.4-100h32l23.8,65.6,23.8-65.6h32l-36.4,100Z"/><path class="cls-1" d="M1274.27,212.79h30v100h-30.1l-1.4-9c-2.47,3.47-5.58,6.27-9.35,8.4-3.77,2.13-8.15,3.2-13.15,3.2-7.47,0-14.45-1.4-20.95-4.2-6.5-2.8-12.22-6.68-17.15-11.65-4.93-4.97-8.78-10.7-11.55-17.2-2.77-6.5-4.15-13.48-4.15-20.95s1.3-13.8,3.9-20c2.6-6.2,6.25-11.65,10.95-16.35,4.7-4.7,10.13-8.38,16.3-11.05,6.17-2.67,12.78-4,19.85-4,5.73,0,10.95,1.18,15.65,3.55,4.7,2.37,8.88,5.32,12.55,8.85l-1.4-9.6ZM1249.47,286.59c4.13,0,7.9-1.07,11.3-3.2,3.4-2.13,6.1-5,8.1-8.6s3-7.6,3-12-1-8.4-3-12-4.7-6.47-8.1-8.6c-3.4-2.13-7.17-3.2-11.3-3.2s-7.88,1.07-11.25,3.2c-3.37,2.13-6.03,5-8,8.6-1.97,3.6-2.95,7.6-2.95,12s1,8.4,3,12,4.68,6.47,8.05,8.6c3.37,2.13,7.08,3.2,11.15,3.2Z"/><path class="cls-2" d="M626.48,490.62c-4.96-.18-9.78-1.12-14.46-2.8-4.68-1.68-8.78-3.98-12.3-6.88-3.52-2.91-6.07-6.26-7.66-10.05l13.22-5.69c.92,2.08,2.57,4.04,4.96,5.87,2.39,1.84,5.14,3.3,8.26,4.41,3.12,1.1,6.27,1.65,9.45,1.65,3.36,0,6.52-.52,9.45-1.56,2.94-1.04,5.34-2.58,7.2-4.64,1.87-2.05,2.8-4.51,2.8-7.39,0-3.06-1.03-5.46-3.07-7.21-2.05-1.74-4.62-3.12-7.71-4.13-3.09-1.01-6.23-1.97-9.41-2.89-6.3-1.59-11.93-3.5-16.89-5.74-4.96-2.23-8.86-5.08-11.7-8.54-2.85-3.46-4.27-7.88-4.27-13.26,0-5.69,1.57-10.62,4.73-14.78,3.15-4.16,7.3-7.37,12.44-9.64,5.14-2.26,10.65-3.4,16.52-3.4,7.4,0,14.17,1.59,20.28,4.77,6.12,3.18,10.68,7.5,13.68,12.94l-12.39,7.25c-1.04-2.2-2.63-4.14-4.77-5.83-2.14-1.68-4.59-3.01-7.34-3.99-2.75-.98-5.57-1.5-8.44-1.56-3.55-.12-6.87.34-9.96,1.38-3.09,1.04-5.57,2.62-7.44,4.73-1.87,2.11-2.8,4.73-2.8,7.85s.99,5.39,2.98,6.98c1.99,1.59,4.59,2.86,7.8,3.81,3.21.95,6.71,2.04,10.51,3.26,5.57,1.77,10.77,3.82,15.6,6.15,4.83,2.33,8.73,5.23,11.7,8.72,2.97,3.49,4.42,7.8,4.36,12.94,0,5.63-1.68,10.54-5.05,14.73-3.37,4.19-7.73,7.39-13.08,9.59-5.35,2.2-11.09,3.18-17.21,2.94Z"/><path class="cls-2" d="M750.58,397.09h15.42v91.79h-15.42l-.64-15.51c-2.88,5.32-6.84,9.64-11.89,12.94-5.05,3.3-11.06,4.96-18.04,4.96s-13.03-1.27-18.91-3.81c-5.87-2.54-11.06-6.06-15.56-10.56-4.5-4.5-8-9.68-10.51-15.56-2.51-5.87-3.76-12.21-3.76-19s1.22-12.73,3.67-18.54c2.45-5.81,5.86-10.91,10.23-15.28,4.37-4.37,9.44-7.8,15.19-10.28,5.75-2.48,11.93-3.72,18.54-3.72,7.22,0,13.55,1.7,19,5.09s9.85,7.79,13.22,13.17l-.55-15.7ZM719.74,476.3c6.06,0,11.3-1.48,15.74-4.45,4.44-2.97,7.86-6.99,10.28-12.07,2.42-5.08,3.62-10.68,3.62-16.8s-1.22-11.89-3.67-16.93c-2.45-5.05-5.89-9.06-10.33-12.02-4.44-2.97-9.65-4.45-15.65-4.45s-11.56,1.5-16.52,4.5c-4.96,3-8.89,7.02-11.79,12.07-2.91,5.05-4.36,10.66-4.36,16.84s1.5,11.79,4.5,16.84c3,5.05,6.98,9.06,11.93,12.02,4.96,2.97,10.37,4.45,16.25,4.45Z"/><path class="cls-2" d="M780.68,454v-56.91h15.42v53.51c0,4.65,1.13,8.87,3.4,12.67,2.26,3.8,5.31,6.81,9.13,9.04,3.82,2.23,8.03,3.35,12.62,3.35s8.86-1.12,12.62-3.35c3.76-2.23,6.78-5.25,9.04-9.04,2.26-3.79,3.4-8.02,3.4-12.67v-53.51h15.42l.09,91.79h-15.42l-.09-11.66c-3.24,4.28-7.34,7.7-12.3,10.23-4.96,2.54-10.31,3.81-16.06,3.81-6.85,0-13.11-1.67-18.77-5-5.66-3.33-10.16-7.82-13.49-13.45-3.34-5.63-5-11.9-5-18.82ZM819.05,386.9l7.34-26.44h15.42l-12.48,26.44h-10.28Z"/><path class="cls-2" d="M953.25,351.19h15.42v137.68h-15.42v-15.6c-3.12,5.39-7.31,9.73-12.58,13.03-5.26,3.3-11.44,4.96-18.54,4.96-6.67,0-12.91-1.25-18.72-3.76-5.81-2.51-10.94-5.98-15.37-10.42-4.44-4.44-7.91-9.56-10.42-15.37-2.51-5.81-3.76-12.05-3.76-18.72s1.25-12.93,3.76-18.77c2.51-5.84,5.98-10.98,10.42-15.42,4.44-4.44,9.56-7.91,15.37-10.42,5.81-2.51,12.05-3.76,18.72-3.76,7.1,0,13.28,1.65,18.54,4.96,5.26,3.3,9.45,7.65,12.58,13.03v-61.41ZM922.31,476.3c6.06,0,11.3-1.48,15.74-4.45,4.44-2.97,7.86-6.99,10.28-12.07,2.42-5.08,3.62-10.68,3.62-16.8s-1.22-11.89-3.67-16.93c-2.45-5.05-5.89-9.06-10.33-12.02-4.44-2.97-9.65-4.45-15.65-4.45s-11.55,1.5-16.48,4.5c-4.93,3-8.86,7.02-11.79,12.07s-4.41,10.66-4.41,16.84,1.5,11.79,4.5,16.84c3,5.05,6.98,9.06,11.93,12.02,4.96,2.97,10.37,4.45,16.25,4.45Z"/><path class="cls-2" d="M1030.26,491.26c-8.44,0-16.14-2.17-23.08-6.52-6.94-4.34-12.48-10.17-16.61-17.49-4.13-7.31-6.2-15.4-6.2-24.28,0-6.73,1.19-13.02,3.58-18.86,2.39-5.84,5.67-10.98,9.87-15.42,4.19-4.44,9.07-7.91,14.64-10.42,5.57-2.51,11.5-3.76,17.81-3.76,6.91,0,13.26,1.39,19.05,4.18,5.78,2.78,10.74,6.65,14.87,11.61,4.13,4.96,7.22,10.71,9.27,17.26,2.05,6.55,2.8,13.55,2.25,21.02h-74.9c.73,5.2,2.45,9.84,5.14,13.91,2.69,4.07,6.13,7.3,10.33,9.68,4.19,2.39,8.86,3.61,14,3.67,5.51,0,10.49-1.42,14.96-4.27,4.47-2.85,8.08-6.75,10.83-11.7l15.7,3.67c-3.67,8.14-9.21,14.79-16.61,19.96-7.4,5.17-15.7,7.76-24.87,7.76ZM1000.33,436.47h59.84c-.49-5.14-2.14-9.84-4.96-14.09-2.82-4.25-6.4-7.66-10.74-10.23-4.35-2.57-9.09-3.86-14.23-3.86s-9.85,1.25-14.14,3.76c-4.28,2.51-7.82,5.89-10.6,10.14-2.78,4.25-4.51,9.01-5.19,14.27Z"/><path class="cls-2" d="M565.23,412.62c3.34-7.65-.15-16.55-7.8-19.89-7.65-3.34-16.55.15-19.89,7.8-21.47,49.15-70.09,81.6-124.66,81.6-75.09,0-135.96-60.88-135.96-135.96s60.87-135.96,135.96-135.96c54.56,0,103.17,32.43,124.66,81.57,3.34,7.64,12.25,11.13,19.89,7.79,7.64-3.34,11.13-12.25,7.79-19.89-26.25-60.04-85.67-99.68-152.34-99.68-91.78,0-166.18,74.4-166.18,166.18s74.4,166.18,166.18,166.18c66.69,0,126.11-39.65,152.34-99.72Z"/><path class="cls-1" d="M443.1,346.16c0,8.34,6.76,15.11,15.11,15.11h135.96c8.34,0,15.11-6.76,15.11-15.11s-6.76-15.11-15.11-15.11h-135.96c-8.34,0-15.11,6.76-15.11,15.11Z"/></svg>
